# xmcd
#
# Track frame offsets: 
#        150
#        13337
#        28670
#        39618
#        54600
#        66955
#        80285
#        91635
#        104806
#        115617
#        125670
#        137351
#        148847
#        159186
#        170281
#        182448
#
# Disc length: 2574 seconds
#
# Revision: 0
# Processed by: cddbd v1.5.2PL0 Copyright (c) Steve Scherf et al.
# Submitted via: ExactAudioCopy v0.95b3
#
DISCID=d10a0c10
DTITLE=Junior Wells  - In My Younger Days  FLAC
DYEAR=1900
DGENRE=
TTITLE0=Cut That Out
TTITLE1=So All Alone
TTITLE2=Eagle Rock
TTITLE3='Bout the Break of Day
TTITLE4=Lawdy! Lawdy!
TTITLE5=Junior's Wail
TTITLE6=Tomorrow Night
TTITLE7=I Could Cry
TTITLE8=Cha Cha Cha in Blues
TTITLE9=Lovey Dovey Lovey One
TTITLE10=Little by Little
TTITLE11=Universal Rock
TTITLE12=Messin' With the Kid
TTITLE13=You Sure Look Good to Me
TTITLE14=It Hurts Me Too (When Things Go Wrong)
TTITLE15=I Need Me a Car
EXTD=
EXTT0=
EXTT1=
EXTT2=
EXTT3=
EXTT4=
EXTT5=
EXTT6=
EXTT7=
EXTT8=
EXTT9=
EXTT10=
EXTT11=
EXTT12=
EXTT13=
EXTT14=
EXTT15=
PLAYORDER=
